<svg width="245" height="56" viewBox="0 0 245 56" version="1.1" xmlns="http://www.w3.org/2000/svg" xmlns:xlink="http://www.w3.org/1999/xlink">
<title>BigBinary</title>
<desc>Created using Figma</desc>
<g id="Canvas" transform="translate(-2395 -4232)">
<g id="BigBinary">
<use xlink:href="#path0_fill" transform="translate(2391 4219)" fill="#0F82E6"/>
</g>
</g>
<defs>
<path id="path0_fill" d="M 4.51172 56L 22.5 56C 25.8594 56 28.6621 54.877 30.9082 52.6309C 33.1738 50.4824 34.3262 47.5625 34.3652 43.8711C 34.3652 41.6445 33.8086 39.584 32.6953 37.6895C 31.5039 35.8535 29.7461 34.6328 27.4219 34.0273L 27.4219 33.9102C 28.6523 33.3242 29.6875 32.6699 30.5273 31.9473C 31.3672 31.2637 32.0117 30.541 32.4609 29.7793C 33.3398 28.1777 33.7598 26.498 33.7207 24.7402C 33.7207 21.3027 32.6562 18.5391 30.5273 16.4492C 28.418 14.3789 25.2637 13.3242 21.0645 13.2852L 4.51172 13.2852L 4.51172 56ZM 20.9473 37.0449C 23.3496 37.084 25.1074 37.7188 26.2207 38.9492C 27.334 40.1992 27.8906 41.7031 27.8906 43.4609C 27.8906 45.1797 27.334 46.6641 26.2207 47.9141C 25.1074 49.1836 23.3496 49.8379 20.9473 49.877L 10.9863 49.877L 10.9863 37.0449L 20.9473 37.0449ZM 20.332 19.0566C 22.6953 19.0957 24.4336 19.6719 25.5469 20.7852C 26.6797 21.9766 27.2461 23.4316 27.2461 25.1504C 27.2461 26.8691 26.6797 28.2949 25.5469 29.4277C 24.4336 30.6582 22.6953 31.2734 20.332 31.2734L 10.9863 31.2734L 10.9863 19.0566L 20.332 19.0566ZM 40.752 56L 46.875 56L 46.875 25.5898L 40.752 25.5898L 40.752 56ZM 40.752 19.4082L 46.875 19.4082L 46.875 13.2852L 40.752 13.2852L 40.752 19.4082ZM 72.0996 52.8066L 72.0996 55.9414C 72.0605 58.0117 71.416 59.6328 70.166 60.8047C 68.8965 61.957 67.2168 62.5332 65.127 62.5332C 64.0137 62.4941 62.9395 62.1914 61.9043 61.625C 60.8887 61.1172 59.9902 60.502 59.209 59.7793L 54.4629 63.5586C 57.373 66.8789 60.8887 68.5781 65.0098 68.6562C 68.6035 68.6562 71.6895 67.5527 74.2676 65.3457C 76.8262 63.1973 78.1445 59.8379 78.2227 55.2676L 78.2227 25.5898L 72.0996 25.5898L 72.0996 28.8125C 69.8926 26.4102 67.2754 25.209 64.248 25.209C 62.2754 25.248 60.6348 25.6289 59.3262 26.3516C 57.959 27.1133 56.9141 27.9727 56.1914 28.9297C 55.3906 29.9062 54.8145 31.1074 54.4629 32.5332C 54.0918 33.9785 53.9062 36.7422 53.9062 40.8242C 53.9062 44.8281 54.0918 47.543 54.4629 48.9688C 54.8145 50.4141 55.3906 51.6348 56.1914 52.6309C 56.9141 53.5098 57.959 54.3301 59.3262 55.0918C 60.6348 55.8926 62.2754 56.3125 64.248 56.3516C 67.4707 56.2734 70.0879 55.0918 72.0996 52.8066ZM 60.0293 40.8242C 60.0293 38.4609 60.1074 36.8203 60.2637 35.9023C 60.4004 34.9844 60.7227 34.2422 61.2305 33.6758C 61.6406 33.1289 62.2656 32.5918 63.1055 32.0645C 63.9062 31.6152 64.9023 31.3711 66.0938 31.332C 67.2852 31.3711 68.2812 31.6152 69.082 32.0645C 69.8828 32.5918 70.4883 33.1289 70.8984 33.6758C 71.4062 34.2422 71.748 34.9844 71.9238 35.9023C 72.041 36.8203 72.0996 38.4609 72.0996 40.8242C 72.0996 43.1484 72.041 44.75 71.9238 45.6289C 71.748 46.5469 71.4062 47.3086 70.8984 47.9141C 70.4883 48.4609 69.8828 48.959 69.082 49.4082C 68.2812 49.9551 67.2852 50.2285 66.0938 50.2285C 64.9023 50.2285 63.9062 49.9551 63.1055 49.4082C 62.2656 48.959 61.6406 48.4609 61.2305 47.9141C 60.7227 47.3086 60.4004 46.5469 60.2637 45.6289C 60.1074 44.75 60.0293 43.1484 60.0293 40.8242ZM 86.7188 56L 104.707 56C 108.066 56 110.869 54.877 113.115 52.6309C 115.381 50.4824 116.533 47.5625 116.572 43.8711C 116.572 41.6445 116.016 39.584 114.902 37.6895C 113.711 35.8535 111.953 34.6328 109.629 34.0273L 109.629 33.9102C 110.859 33.3242 111.895 32.6699 112.734 31.9473C 113.574 31.2637 114.219 30.541 114.668 29.7793C 115.547 28.1777 115.967 26.498 115.928 24.7402C 115.928 21.3027 114.863 18.5391 112.734 16.4492C 110.625 14.3789 107.471 13.3242 103.271 13.2852L 86.7188 13.2852L 86.7188 56ZM 103.154 37.0449C 105.557 37.084 107.314 37.7188 108.428 38.9492C 109.541 40.1992 110.098 41.7031 110.098 43.4609C 110.098 45.1797 109.541 46.6641 108.428 47.9141C 107.314 49.1836 105.557 49.8379 103.154 49.877L 93.1934 49.877L 93.1934 37.0449L 103.154 37.0449ZM 102.539 19.0566C 104.902 19.0957 106.641 19.6719 107.754 20.7852C 108.887 21.9766 109.453 23.4316 109.453 25.1504C 109.453 26.8691 108.887 28.2949 107.754 29.4277C 106.641 30.6582 104.902 31.2734 102.539 31.2734L 93.1934 31.2734L 93.1934 19.0566L 102.539 19.0566ZM 122.959 56L 129.082 56L 129.082 25.5898L 122.959 25.5898L 122.959 56ZM 122.959 19.4082L 129.082 19.4082L 129.082 13.2852L 122.959 13.2852L 122.959 19.4082ZM 137.197 56L 143.32 56L 143.32 37.8945C 143.32 35.7656 143.896 34.1445 145.049 33.0312C 146.182 31.8984 147.627 31.332 149.385 31.332C 151.143 31.332 152.578 31.8984 153.691 33.0312C 154.824 34.1445 155.391 35.7656 155.391 37.8945L 155.391 56L 161.514 56L 161.514 35.7852C 161.416 32.3086 160.332 29.6719 158.262 27.875C 156.172 26.0977 153.867 25.209 151.348 25.209C 148.086 25.209 145.449 26.4102 143.438 28.8125L 143.32 28.8125L 143.32 25.5898L 137.197 25.5898L 137.197 56ZM 185.391 56L 191.514 56L 191.514 35.2285C 191.475 31.5176 190.312 28.9004 188.027 27.377C 185.742 25.8926 182.686 25.1699 178.857 25.209C 174.326 25.1309 170.898 26.6152 168.574 29.6621L 173.379 33.3242C 173.906 32.4453 174.629 31.8203 175.547 31.4492C 176.426 31.1367 177.627 30.9805 179.15 30.9805C 183.35 30.9023 185.43 32.2012 185.391 34.877L 185.391 38.0703L 176.924 38.0703C 173.682 38.1094 171.221 38.9883 169.541 40.707C 167.861 42.3867 167.021 44.5059 167.021 47.0645C 167.021 49.7402 167.988 51.9375 169.922 53.6562C 171.758 55.4141 174.375 56.3125 177.773 56.3516C 179.844 56.3516 181.465 56.0977 182.637 55.5898C 183.828 55.1016 184.707 54.3398 185.273 53.3047L 185.391 53.3047L 185.391 56ZM 185.391 45.3066C 185.391 47.5918 184.912 49.0566 183.955 49.7012C 182.9 50.3457 181.094 50.6484 178.535 50.6094C 176.504 50.6094 175.049 50.209 174.17 49.4082C 173.252 48.6855 172.793 47.8066 172.793 46.7715C 172.754 44.4082 174.512 43.1875 178.066 43.1094L 185.391 43.1094L 185.391 45.3066ZM 199.424 56L 205.547 56L 205.547 37.6895C 205.586 35.4629 206.23 33.8516 207.48 32.8555C 208.594 31.8398 209.932 31.332 211.494 31.332C 212.881 31.332 214.219 31.8398 215.508 32.8555L 219.961 27.5527C 218.145 26.0293 216.016 25.248 213.574 25.209C 210.312 25.209 207.676 26.4102 205.664 28.8125L 205.547 28.8125L 205.547 25.5898L 199.424 25.5898L 199.424 56ZM 232.336 54.7988L 230.666 59.8965C 230.393 60.7754 229.914 61.4395 229.23 61.8887C 228.547 62.3184 227.805 62.5332 227.004 62.5332L 225.217 62.5332L 225.217 68.3047L 227.238 68.3047C 229.133 68.3047 230.832 67.8848 232.336 67.0449C 233.82 66.166 234.982 64.584 235.822 62.2988L 248.918 25.5898L 242.414 25.5898L 235.236 46.8887L 235.119 46.8887L 227.912 25.5898L 221.438 25.5898L 232.336 54.7988Z"/>
</defs>
</svg>
