<svg width="250" height="250" viewBox="0 0 250 250" version="1.1" xmlns="http://www.w3.org/2000/svg" xmlns:xlink="http://www.w3.org/1999/xlink">
<title>logo-dark-square</title>
<desc>Created using Figma</desc>
<g id="Canvas" transform="translate(-2316 -5451)">
<g id="logo-dark-square">
<g id="Rectangle 7">
<use xlink:href="#path0_fill" transform="translate(2316 5451)" fill="#FFFFFF"/>
</g>
<g id="BigBinary">
<use xlink:href="#path1_fill" transform="translate(2342 5548)" fill="#0F82E6"/>
</g>
</g>
</g>
<defs>
<path id="path0_fill" d="M 0 0L 250 0L 250 250L 0 250L 0 0Z"/>
<path id="path1_fill" d="M 3.60938 45L 18 45C 20.6875 45 22.9297 44.1016 24.7266 42.3047C 26.5391 40.5859 27.4609 38.25 27.4922 35.2969C 27.4922 33.5156 27.0469 31.8672 26.1562 30.3516C 25.2031 28.8828 23.7969 27.9062 21.9375 27.4219L 21.9375 27.3281C 22.9219 26.8594 23.75 26.3359 24.4219 25.7578C 25.0938 25.2109 25.6094 24.6328 25.9688 24.0234C 26.6719 22.7422 27.0078 21.3984 26.9766 19.9922C 26.9766 17.2422 26.125 15.0312 24.4219 13.3594C 22.7344 11.7031 20.2109 10.8594 16.8516 10.8281L 3.60938 10.8281L 3.60938 45ZM 16.7578 29.8359C 18.6797 29.8672 20.0859 30.375 20.9766 31.3594C 21.8672 32.3594 22.3125 33.5625 22.3125 34.9688C 22.3125 36.3438 21.8672 37.5312 20.9766 38.5312C 20.0859 39.5469 18.6797 40.0703 16.7578 40.1016L 8.78906 40.1016L 8.78906 29.8359L 16.7578 29.8359ZM 16.2656 15.4453C 18.1562 15.4766 19.5469 15.9375 20.4375 16.8281C 21.3438 17.7812 21.7969 18.9453 21.7969 20.3203C 21.7969 21.6953 21.3438 22.8359 20.4375 23.7422C 19.5469 24.7266 18.1562 25.2188 16.2656 25.2188L 8.78906 25.2188L 8.78906 15.4453L 16.2656 15.4453ZM 32.6016 45L 37.5 45L 37.5 20.6719L 32.6016 20.6719L 32.6016 45ZM 32.6016 15.7266L 37.5 15.7266L 37.5 10.8281L 32.6016 10.8281L 32.6016 15.7266ZM 57.6797 42.4453L 57.6797 44.9531C 57.6484 46.6094 57.1328 47.9062 56.1328 48.8438C 55.1172 49.7656 53.7734 50.2266 52.1016 50.2266C 51.2109 50.1953 50.3516 49.9531 49.5234 49.5C 48.7109 49.0938 47.9922 48.6016 47.3672 48.0234L 43.5703 51.0469C 45.8984 53.7031 48.7109 55.0625 52.0078 55.125C 54.8828 55.125 57.3516 54.2422 59.4141 52.4766C 61.4609 50.7578 62.5156 48.0703 62.5781 44.4141L 62.5781 20.6719L 57.6797 20.6719L 57.6797 23.25C 55.9141 21.3281 53.8203 20.3672 51.3984 20.3672C 49.8203 20.3984 48.5078 20.7031 47.4609 21.2812C 46.3672 21.8906 45.5312 22.5781 44.9531 23.3438C 44.3125 24.125 43.8516 25.0859 43.5703 26.2266C 43.2734 27.3828 43.125 29.5938 43.125 32.8594C 43.125 36.0625 43.2734 38.2344 43.5703 39.375C 43.8516 40.5312 44.3125 41.5078 44.9531 42.3047C 45.5312 43.0078 46.3672 43.6641 47.4609 44.2734C 48.5078 44.9141 49.8203 45.25 51.3984 45.2812C 53.9766 45.2188 56.0703 44.2734 57.6797 42.4453ZM 48.0234 32.8594C 48.0234 30.9688 48.0859 29.6562 48.2109 28.9219C 48.3203 28.1875 48.5781 27.5938 48.9844 27.1406C 49.3125 26.7031 49.8125 26.2734 50.4844 25.8516C 51.125 25.4922 51.9219 25.2969 52.875 25.2656C 53.8281 25.2969 54.625 25.4922 55.2656 25.8516C 55.9062 26.2734 56.3906 26.7031 56.7188 27.1406C 57.125 27.5938 57.3984 28.1875 57.5391 28.9219C 57.6328 29.6562 57.6797 30.9688 57.6797 32.8594C 57.6797 34.7188 57.6328 36 57.5391 36.7031C 57.3984 37.4375 57.125 38.0469 56.7188 38.5312C 56.3906 38.9688 55.9062 39.3672 55.2656 39.7266C 54.625 40.1641 53.8281 40.3828 52.875 40.3828C 51.9219 40.3828 51.125 40.1641 50.4844 39.7266C 49.8125 39.3672 49.3125 38.9688 48.9844 38.5312C 48.5781 38.0469 48.3203 37.4375 48.2109 36.7031C 48.0859 36 48.0234 34.7188 48.0234 32.8594ZM 69.375 45L 83.7656 45C 86.4531 45 88.6953 44.1016 90.4922 42.3047C 92.3047 40.5859 93.2266 38.25 93.2578 35.2969C 93.2578 33.5156 92.8125 31.8672 91.9219 30.3516C 90.9688 28.8828 89.5625 27.9062 87.7031 27.4219L 87.7031 27.3281C 88.6875 26.8594 89.5156 26.3359 90.1875 25.7578C 90.8594 25.2109 91.375 24.6328 91.7344 24.0234C 92.4375 22.7422 92.7734 21.3984 92.7422 19.9922C 92.7422 17.2422 91.8906 15.0312 90.1875 13.3594C 88.5 11.7031 85.9766 10.8594 82.6172 10.8281L 69.375 10.8281L 69.375 45ZM 82.5234 29.8359C 84.4453 29.8672 85.8516 30.375 86.7422 31.3594C 87.6328 32.3594 88.0781 33.5625 88.0781 34.9688C 88.0781 36.3438 87.6328 37.5312 86.7422 38.5312C 85.8516 39.5469 84.4453 40.0703 82.5234 40.1016L 74.5547 40.1016L 74.5547 29.8359L 82.5234 29.8359ZM 82.0312 15.4453C 83.9219 15.4766 85.3125 15.9375 86.2031 16.8281C 87.1094 17.7812 87.5625 18.9453 87.5625 20.3203C 87.5625 21.6953 87.1094 22.8359 86.2031 23.7422C 85.3125 24.7266 83.9219 25.2188 82.0312 25.2188L 74.5547 25.2188L 74.5547 15.4453L 82.0312 15.4453ZM 98.3672 45L 103.266 45L 103.266 20.6719L 98.3672 20.6719L 98.3672 45ZM 98.3672 15.7266L 103.266 15.7266L 103.266 10.8281L 98.3672 10.8281L 98.3672 15.7266ZM 109.758 45L 114.656 45L 114.656 30.5156C 114.656 28.8125 115.117 27.5156 116.039 26.625C 116.945 25.7188 118.102 25.2656 119.508 25.2656C 120.914 25.2656 122.062 25.7188 122.953 26.625C 123.859 27.5156 124.312 28.8125 124.312 30.5156L 124.312 45L 129.211 45L 129.211 28.8281C 129.133 26.0469 128.266 23.9375 126.609 22.5C 124.938 21.0781 123.094 20.3672 121.078 20.3672C 118.469 20.3672 116.359 21.3281 114.75 23.25L 114.656 23.25L 114.656 20.6719L 109.758 20.6719L 109.758 45ZM 148.312 45L 153.211 45L 153.211 28.3828C 153.18 25.4141 152.25 23.3203 150.422 22.1016C 148.594 20.9141 146.148 20.3359 143.086 20.3672C 139.461 20.3047 136.719 21.4922 134.859 23.9297L 138.703 26.8594C 139.125 26.1562 139.703 25.6562 140.438 25.3594C 141.141 25.1094 142.102 24.9844 143.32 24.9844C 146.68 24.9219 148.344 25.9609 148.312 28.1016L 148.312 30.6562L 141.539 30.6562C 138.945 30.6875 136.977 31.3906 135.633 32.7656C 134.289 34.1094 133.617 35.8047 133.617 37.8516C 133.617 39.9922 134.391 41.75 135.938 43.125C 137.406 44.5312 139.5 45.25 142.219 45.2812C 143.875 45.2812 145.172 45.0781 146.109 44.6719C 147.062 44.2812 147.766 43.6719 148.219 42.8438L 148.312 42.8438L 148.312 45ZM 148.312 36.4453C 148.312 38.2734 147.93 39.4453 147.164 39.9609C 146.32 40.4766 144.875 40.7188 142.828 40.6875C 141.203 40.6875 140.039 40.3672 139.336 39.7266C 138.602 39.1484 138.234 38.4453 138.234 37.6172C 138.203 35.7266 139.609 34.75 142.453 34.6875L 148.312 34.6875L 148.312 36.4453ZM 159.539 45L 164.438 45L 164.438 30.3516C 164.469 28.5703 164.984 27.2812 165.984 26.4844C 166.875 25.6719 167.945 25.2656 169.195 25.2656C 170.305 25.2656 171.375 25.6719 172.406 26.4844L 175.969 22.2422C 174.516 21.0234 172.812 20.3984 170.859 20.3672C 168.25 20.3672 166.141 21.3281 164.531 23.25L 164.438 23.25L 164.438 20.6719L 159.539 20.6719L 159.539 45ZM 185.869 44.0391L 184.533 48.1172C 184.314 48.8203 183.931 49.3516 183.384 49.7109C 182.837 50.0547 182.244 50.2266 181.603 50.2266L 180.173 50.2266L 180.173 54.8438L 181.791 54.8438C 183.306 54.8438 184.666 54.5078 185.869 53.8359C 187.056 53.1328 187.986 51.8672 188.658 50.0391L 199.134 20.6719L 193.931 20.6719L 188.189 37.7109L 188.095 37.7109L 182.33 20.6719L 177.15 20.6719L 185.869 44.0391Z"/>
</defs>
</svg>
