<svg width="250" height="110" viewBox="0 0 250 110" version="1.1" xmlns="http://www.w3.org/2000/svg" xmlns:xlink="http://www.w3.org/1999/xlink">
<title>logo-light-solid</title>
<desc>Created using Figma</desc>
<g id="Canvas" transform="translate(-3109 -5363)">
<g id="logo-light-solid">
<g id="Rectangle 7">
<use xlink:href="#path0_fill" transform="translate(3109 5363)" fill="#0F82E6"/>
</g>
<g id="BigBinary">
<use xlink:href="#path1_fill" transform="translate(3130 5389)" fill="#FFFFFF"/>
</g>
</g>
</g>
<defs>
<path id="path0_fill" d="M 0 0L 250 0L 250 110L 0 110L 0 0Z"/>
<path id="path1_fill" d="M 3.75977 47L 18.75 47C 21.5495 47 23.8851 46.0641 25.7568 44.1924C 27.6449 42.402 28.6051 39.9688 28.6377 36.8926C 28.6377 35.0371 28.1738 33.32 27.2461 31.7412C 26.2533 30.2113 24.7884 29.194 22.8516 28.6895L 22.8516 28.5918C 23.877 28.1035 24.7396 27.5583 25.4395 26.9561C 26.1393 26.3864 26.6764 25.7842 27.0508 25.1494C 27.7832 23.8148 28.1331 22.415 28.1006 20.9502C 28.1006 18.0856 27.2135 15.7826 25.4395 14.041C 23.6816 12.3158 21.0531 11.4368 17.5537 11.4043L 3.75977 11.4043L 3.75977 47ZM 17.4561 31.2041C 19.458 31.2367 20.9229 31.7656 21.8506 32.791C 22.7783 33.8327 23.2422 35.0859 23.2422 36.5508C 23.2422 37.9831 22.7783 39.2201 21.8506 40.2617C 20.9229 41.3197 19.458 41.8649 17.4561 41.8975L 9.15527 41.8975L 9.15527 31.2041L 17.4561 31.2041ZM 16.9434 16.2139C 18.9128 16.2464 20.3613 16.7266 21.2891 17.6543C 22.2331 18.6471 22.7051 19.8597 22.7051 21.292C 22.7051 22.7243 22.2331 23.9124 21.2891 24.8564C 20.3613 25.8818 18.9128 26.3945 16.9434 26.3945L 9.15527 26.3945L 9.15527 16.2139L 16.9434 16.2139ZM 33.96 47L 39.0625 47L 39.0625 21.6582L 33.96 21.6582L 33.96 47ZM 33.96 16.5068L 39.0625 16.5068L 39.0625 11.4043L 33.96 11.4043L 33.96 16.5068ZM 60.083 44.3389L 60.083 46.9512C 60.0505 48.6764 59.5133 50.0273 58.4717 51.0039C 57.4137 51.9642 56.014 52.4443 54.2725 52.4443C 53.3447 52.4118 52.4495 52.1595 51.5869 51.6875C 50.7406 51.2643 49.9919 50.7516 49.3408 50.1494L 45.3857 53.2988C 47.8109 56.0658 50.7406 57.4818 54.1748 57.5469C 57.1696 57.5469 59.7412 56.6273 61.8896 54.7881C 64.0218 52.9977 65.1204 50.1982 65.1855 46.3896L 65.1855 21.6582L 60.083 21.6582L 60.083 24.3438C 58.2438 22.3418 56.0628 21.3408 53.54 21.3408C 51.8962 21.3734 50.529 21.6908 49.4385 22.293C 48.2992 22.9277 47.4284 23.6439 46.8262 24.4414C 46.1589 25.2552 45.6787 26.2562 45.3857 27.4443C 45.0765 28.6488 44.9219 30.9518 44.9219 34.3535C 44.9219 37.6901 45.0765 39.9525 45.3857 41.1406C 45.6787 42.3451 46.1589 43.3623 46.8262 44.1924C 47.4284 44.9248 48.2992 45.6084 49.4385 46.2432C 50.529 46.9105 51.8962 47.2604 53.54 47.293C 56.2256 47.2279 58.4066 46.2432 60.083 44.3389ZM 50.0244 34.3535C 50.0244 32.3841 50.0895 31.0169 50.2197 30.252C 50.3337 29.487 50.6022 28.8685 51.0254 28.3965C 51.3672 27.9408 51.888 27.4932 52.5879 27.0537C 53.2552 26.6794 54.0853 26.4759 55.0781 26.4434C 56.071 26.4759 56.901 26.6794 57.5684 27.0537C 58.2357 27.4932 58.7402 27.9408 59.082 28.3965C 59.5052 28.8685 59.79 29.487 59.9365 30.252C 60.0342 31.0169 60.083 32.3841 60.083 34.3535C 60.083 36.2904 60.0342 37.625 59.9365 38.3574C 59.79 39.1224 59.5052 39.7572 59.082 40.2617C 58.7402 40.7174 58.2357 41.1325 57.5684 41.5068C 56.901 41.9626 56.071 42.1904 55.0781 42.1904C 54.0853 42.1904 53.2552 41.9626 52.5879 41.5068C 51.888 41.1325 51.3672 40.7174 51.0254 40.2617C 50.6022 39.7572 50.3337 39.1224 50.2197 38.3574C 50.0895 37.625 50.0244 36.2904 50.0244 34.3535ZM 72.2656 47L 87.2559 47C 90.0553 47 92.391 46.0641 94.2627 44.1924C 96.1507 42.402 97.111 39.9688 97.1436 36.8926C 97.1436 35.0371 96.6797 33.32 95.752 31.7412C 94.7591 30.2113 93.2943 29.194 91.3574 28.6895L 91.3574 28.5918C 92.3828 28.1035 93.2454 27.5583 93.9453 26.9561C 94.6452 26.3864 95.1823 25.7842 95.5566 25.1494C 96.2891 23.8148 96.639 22.415 96.6064 20.9502C 96.6064 18.0856 95.7194 15.7826 93.9453 14.041C 92.1875 12.3158 89.5589 11.4368 86.0596 11.4043L 72.2656 11.4043L 72.2656 47ZM 85.9619 31.2041C 87.9639 31.2367 89.4287 31.7656 90.3564 32.791C 91.2842 33.8327 91.748 35.0859 91.748 36.5508C 91.748 37.9831 91.2842 39.2201 90.3564 40.2617C 89.4287 41.3197 87.9639 41.8649 85.9619 41.8975L 77.6611 41.8975L 77.6611 31.2041L 85.9619 31.2041ZM 85.4492 16.2139C 87.4186 16.2464 88.8672 16.7266 89.7949 17.6543C 90.7389 18.6471 91.2109 19.8597 91.2109 21.292C 91.2109 22.7243 90.7389 23.9124 89.7949 24.8564C 88.8672 25.8818 87.4186 26.3945 85.4492 26.3945L 77.6611 26.3945L 77.6611 16.2139L 85.4492 16.2139ZM 102.466 47L 107.568 47L 107.568 21.6582L 102.466 21.6582L 102.466 47ZM 102.466 16.5068L 107.568 16.5068L 107.568 11.4043L 102.466 11.4043L 102.466 16.5068ZM 114.331 47L 119.434 47L 119.434 31.9121C 119.434 30.138 119.914 28.7871 120.874 27.8594C 121.818 26.9154 123.022 26.4434 124.487 26.4434C 125.952 26.4434 127.148 26.9154 128.076 27.8594C 129.02 28.7871 129.492 30.138 129.492 31.9121L 129.492 47L 134.595 47L 134.595 30.1543C 134.513 27.2572 133.61 25.0599 131.885 23.5625C 130.143 22.0814 128.223 21.3408 126.123 21.3408C 123.405 21.3408 121.208 22.3418 119.531 24.3438L 119.434 24.3438L 119.434 21.6582L 114.331 21.6582L 114.331 47ZM 154.492 47L 159.595 47L 159.595 29.6904C 159.562 26.598 158.594 24.417 156.689 23.1475C 154.785 21.9105 152.238 21.3083 149.048 21.3408C 145.272 21.2757 142.415 22.5127 140.479 25.0518L 144.482 28.1035C 144.922 27.3711 145.524 26.8503 146.289 26.541C 147.021 26.2806 148.022 26.1504 149.292 26.1504C 152.791 26.0853 154.525 27.1676 154.492 29.3975L 154.492 32.0586L 147.437 32.0586C 144.735 32.0911 142.684 32.8236 141.284 34.2559C 139.884 35.6556 139.185 37.4215 139.185 39.5537C 139.185 41.7835 139.99 43.6146 141.602 45.0469C 143.132 46.5117 145.312 47.2604 148.145 47.293C 149.87 47.293 151.221 47.0814 152.197 46.6582C 153.19 46.2513 153.923 45.6165 154.395 44.7539L 154.492 44.7539L 154.492 47ZM 154.492 38.0889C 154.492 39.9932 154.093 41.2139 153.296 41.751C 152.417 42.2881 150.911 42.5404 148.779 42.5078C 147.087 42.5078 145.874 42.1742 145.142 41.5068C 144.377 40.9046 143.994 40.1722 143.994 39.3096C 143.962 37.3402 145.426 36.3229 148.389 36.2578L 154.492 36.2578L 154.492 38.0889ZM 166.187 47L 171.289 47L 171.289 31.7412C 171.322 29.8857 171.859 28.543 172.9 27.7129C 173.828 26.8665 174.943 26.4434 176.245 26.4434C 177.401 26.4434 178.516 26.8665 179.59 27.7129L 183.301 23.2939C 181.787 22.0244 180.013 21.3734 177.979 21.3408C 175.26 21.3408 173.063 22.3418 171.387 24.3438L 171.289 24.3438L 171.289 21.6582L 166.187 21.6582L 166.187 47ZM 193.613 45.999L 192.222 50.2471C 191.994 50.9795 191.595 51.5329 191.025 51.9072C 190.456 52.2653 189.837 52.4443 189.17 52.4443L 187.681 52.4443L 187.681 57.2539L 189.365 57.2539C 190.944 57.2539 192.36 56.904 193.613 56.2041C 194.85 55.4717 195.819 54.1533 196.519 52.249L 207.432 21.6582L 202.012 21.6582L 196.03 39.4072L 195.933 39.4072L 189.927 21.6582L 184.531 21.6582L 193.613 45.999Z"/>
</defs>
</svg>
